<svg version="1.2" baseProfile="tiny" id="Layer_1" xmlns="http://www.w3.org/2000/svg" xmlns:xlink="http://www.w3.org/1999/xlink" x="0px" y="0px" xml:space="preserve" viewBox="1966.9 1714.58 1066 1570.73">
<g>
	<g>
		<g>

				<ellipse transform="matrix(0.7071 -0.7071 0.7071 0.7071 -855.6035 2425.2573)" fill-rule="evenodd" fill="#6ACFF6" cx="2499.7" cy="2245.4" rx="524.7" ry="524.7"/>
			<path fill="#69BE5A" d="M2898.4,1904.2c-8.4-9.8-17.2-19.4-26.3-28.6c-475.6-23.6-744.2,102.2-860.9,178.1     c-5.4,13.8-10.3,28-14.5,42.3c-14,47.3-21.6,97.5-21.6,149.3c0,289.8,234.9,524.7,524.7,524.7c289.8,0,524.7-234.9,524.7-524.7     C3024.5,2115.2,2976.9,1996,2898.4,1904.2z"/>
			<g>
				<path fill="#FFF34D" d="M2289.1,2726.1c64.5,28.3,135.7,44,210.6,44c289.8,0,524.7-234.9,524.7-524.7c0-30-2.5-59.4-7.4-88.1      C2473.9,2182,2324.1,2589.8,2289.1,2726.1z"/>
			</g>
			<g>
				<path fill="#6ACFF6" d="M2999.2,2406.6c-249.8,102.2-344.7,251.4-380.8,350.1C2798.5,2715,2943.1,2580.7,2999.2,2406.6z"/>
			</g>
		</g>
		<path fill="#303D3B" d="M2929.2,2358.3c-108.7,33.5-181.1,137.1-281.4,110.1c-97.2-26.2-115.2-213.8-115.2-213.8    c-5.8-22-7.3-45.6-3.7-69.4c7.1-47.4,16.4-97.1,8.9-143.2c-10.4-63.7-59.7-96.4-123.7-101.2c-62.8-4.7-119.1,33.4-140.3,91.4    c-31.9,87-31.9,87-122.1,118c9.2,51.4,46.5,73.9,91.4,76.4c40.3,2.3,81.3-9,134.1-15.9c-10.7,22.6-21.3,44.8-30.8,66.8    c-51.6,68.2-94.2,159.8-94.2,227.2c0,152,123.2,275.2,275.2,275.2c49,0,95-12.9,134.8-35.3l0,1.9    c198.5-124.1,258.2-331.5,258.2-331.5C2946.7,2361,2929.2,2358.3,2929.2,2358.3z"/>
		<path fill="#303D3B" d="M2499.9,2780.6c-142.4,0-276.3-55.5-376.9-156.1c-100.7-100.7-156.1-234.6-156.1-376.9    c0-142.4,55.5-276.3,156.1-376.9c100.7-100.7,234.6-156.1,376.9-156.1c142.4,0,276.3,55.5,376.9,156.1    c100.7,100.7,156.1,234.6,156.1,376.9c0,142.4-55.5,276.3-156.1,376.9C2776.2,2725.1,2642.3,2780.6,2499.9,2780.6z M2499.9,1735.2    c-136.8,0-265.5,53.3-362.2,150c-96.8,96.8-150,225.4-150,362.2c0,136.8,53.3,265.5,150,362.2c96.8,96.8,225.4,150,362.2,150    c136.8,0,265.5-53.3,362.2-150c96.8-96.8,150-225.4,150-362.2c0-136.8-53.3-265.5-150-362.2    C2765.4,1788.5,2636.7,1735.2,2499.9,1735.2z"/>
	</g>
	<g>
		<path fill="#303D3B" d="M2073.3,2958.5c-8.6-4.1-18.5-6.8-29-9.4l-3.5-1.1h-0.6c-11.4-1-21.7-5.2-27.6-9.3c-2.7-1.9-4.6-3.5-5.5-5    c-0.9-1.5-1.2-2.7-1.2-5c0-4.5,2.6-8.6,7.7-12.5c6.3-4.7,15.2-7.3,24.3-7.3c13.1,0,23.9,6.5,35.7,14.3c2.4,1.6,5.1,2.4,7.9,2.4    c4.9,0,9.3-2.5,11.9-6.6c4.4-6.4,2.7-15.2-4-19.8l-0.6-0.4c-12-7.8-28.5-18.5-51-18.5c-15.3,0-30,4.5-41.3,12.7    c-12.4,9.1-19.4,22.1-19.4,35.7c0,7.3,2,14.3,5.7,20.2c5,7.9,12.5,14.3,22.5,19c8.5,4,18.7,7.2,30.3,9.3l0.7,0    c11.9,1.8,23.2,5.6,30.4,10.3c2.9,1.9,4.8,3.8,6.2,6.1c1.3,2.1,1.7,3.7,1.7,6.1c0,5.3-3,10.2-8.9,14.6c-7,5.1-16.9,8-27.4,8    l-0.5,0c-15.4,0-32.2-9.2-41.8-17.2c-2.6-2.1-5.8-3.3-9.2-3.3c-4.4,0-8.4,1.9-11.2,5.3c-4.8,6.2-3.8,15.2,2.3,20.2    c13.5,10.6,34.9,22.5,60.5,23.5h0c16.5,0,32.2-4.8,44.1-13.6c13.3-9.5,20.9-23.4,20.9-37.8c0-7.5-2.1-14.9-5.9-21    C2092.4,2970.5,2084.5,2964,2073.3,2958.5z"/>
		<path fill="#303D3B" d="M2141.4,3051.3c8.5,0,15.6-6.9,15.6-15.2v-135.9c0-8.2-7.2-15.2-15.6-15.2c-8.6,0-15.4,6.7-15.4,15.2    v135.9C2126,3044.7,2132.8,3051.3,2141.4,3051.3z"/>
		<path fill="#303D3B" d="M2200.8,3051h75.3c8.1,0,15.2-7.2,15.2-15.4c0-8.5-6.9-15.6-15.2-15.6H2216v-119.8    c0-8.4-6.8-15.2-15.1-15.2c-8.3,0-14.9,6.7-14.9,15.2v135.9C2186,3044.7,2192.5,3051,2200.8,3051z"/>
		<path fill="#303D3B" d="M2323.9,3051.3c8.3,0,15.1-6.8,15.1-15.2v-135.9c0-8.4-6.8-15.2-15.1-15.2c-8.5,0-14.9,6.5-14.9,15.2    v135.9C2309,3044.8,2315.4,3051.3,2323.9,3051.3z"/>
		<path fill="#303D3B" d="M2448.7,3051.3c19.4,0,38.5-6.6,53.8-18.5c2.6-1.8,4-3.9,5.2-6.5l0.2-0.5v-0.6c0,0,0,0,0,0l0.3-0.5    l0.1-0.4c0.1-0.4,0.1-0.7,0.2-1.1c0.2-0.9,0.4-1.9,0.4-3.2v-50.9c0-8.7-7.1-16.1-15.8-16.1h-45.9c-8.8,0-15.6,6.8-15.6,15.4    c0,8.5,7.2,15.6,15.6,15.6h30.6v28.3c-8.9,5-19.2,7.7-29.2,7.7c-15.5,0-29.6-5.7-39.8-16.1c-10.7-10.2-16.5-23.6-16.5-37.8    c0-14.5,5.9-28.1,16.6-38.3c10.1-10.4,24.2-16.1,39.7-16.1c12.5,0,24.9,4.2,34.8,11.9c2.7,2.2,6.2,3.4,9.8,3.4    c4.8,0,9.5-2.2,12.4-5.9c2.6-3.4,3.7-7.7,3.1-12c-0.6-4.2-2.8-7.8-6-10.2c-15.1-11.9-34.3-18.5-54.1-18.5    c-48.3,0-87.5,38.4-87.5,85.7c0,22.9,9.1,44.4,25.7,60.4C2403.5,3042.5,2425.4,3051.3,2448.7,3051.3z"/>
		<path fill="#303D3B" d="M2621.3,3051.3c21.2,0,42.4-9.5,56.9-25.4c15.5-16.2,24-37.5,24-60c0-22.3-8.5-43.6-23.9-60    c-14.3-16-35.5-25.5-56.9-25.5c-22.1,0-43.3,9.3-58.3,25.4c-15.1,16.1-23.5,37.4-23.5,60c0,22.8,8.3,44.1,23.5,60    C2578.2,3042,2599.5,3051.3,2621.3,3051.3z M2621.3,2911.7c12.9,0,25.2,5.5,34.6,15.6c9.5,10.2,15,24.3,15,38.6    c0,14.4-5.5,28.4-15,38.4c-9.5,10.2-21.8,15.8-34.6,15.8c-13.6,0-25.9-5.5-35.5-15.8c-9.5-9.7-15-23.7-15-38.3    c0-14.6,5.5-28.6,15-38.6C2595.3,2917.1,2607.6,2911.7,2621.3,2911.7z"/>
		<path fill="#303D3B" d="M2828.2,3045.9c2.9,3.4,7.1,5.4,11.5,5.4c8.3,0,15.3-6.9,15.3-15.2v-133.9c0-8.1-6.9-14.9-15.1-14.9    c-8.2,0-14.9,6.7-14.9,14.9v87.2l-70.1-96.7c-2.8-3.9-7.1-6.1-12-6.1c-3.1,0-6.2,0.9-8.9,2.8c-4.6,3.4-7,8.4-6,12.9v133.8    c0,8.4,6.8,15.2,15.1,15.2c8.1,0,14.9-6.9,14.9-15.2v-87.9l68.9,95.9C2827.3,3044.8,2827.7,3045.4,2828.2,3045.9z"/>
		<path fill="#303D3B" d="M3009.1,2953h-45.9c-8.8,0-15.6,6.8-15.6,15.4c0,8.5,7.2,15.6,15.6,15.6h30.7v28.3    c-10.4,5.3-19.7,7.8-29.2,7.8c-15.5,0-29.6-5.7-39.8-16.1c-10.7-10.2-16.5-23.7-16.5-37.8c0-14.5,5.9-28.1,16.5-38.3    c10.1-10.4,24.2-16.1,39.7-16.1c12.5,0,24.9,4.2,34.8,11.9c2.7,2.2,6.2,3.4,9.8,3.4c4.8,0,9.5-2.2,12.4-5.9    c2.6-3.4,3.7-7.7,3.1-12c-0.6-4.2-2.8-7.8-6-10.2c-15.1-11.9-34.3-18.5-54.1-18.5c-48.3,0-87.5,38.4-87.5,85.7    c0,22.9,9.1,44.4,25.7,60.4c16.5,16,38.4,24.8,61.8,24.8c19.4,0,38.6-6.6,53.9-18.5c2.8-2,4.2-4.3,5.2-6.5l0.2-0.5v-0.6    c0,0,0,0,0,0l0.3-0.5l0.1-0.4c0.1-0.4,0.1-0.7,0.2-1.1c0.2-0.9,0.4-1.9,0.4-3.2v-50.9C3025,2960.4,3017.9,2953,3009.1,2953z"/>
		<path fill="#303D3B" d="M2269.1,3130c-1.6-3.7-4.5-6.5-8.1-8c-1.8-0.8-3.8-1.2-5.8-1.2c-6.1,0-11.6,3.6-14,9.2l-42.6,101.2    l-42.6-101.2c-2.4-5.6-7.8-9.2-13.8-9.2c-2,0-4,0.4-5.8,1.2c-3.8,1.5-6.8,4.3-8.3,8.1c-1.6,3.7-1.5,7.9,0.1,11.5l56.5,134.6    l0.2,0.4l0.3,0.3c0.1,0.1,0.2,0.3,0.6,1c0.2,0.4,0.4,0.8,0.8,1.1c0.2,0.3,0.4,0.6,0.7,0.8c0,0,0,0,0,0.1v0.9l1.1,0.7    c0.3,0.2,0.6,0.2,0.8,0.2l0.6,1.1h1.5c0.1,0-0.1,0.3,0,0.3c0.1,0,0,0.3,0,0.3v0.3h2.9l0.3,1h2.1c0.2,0,0.5,0.2,0.8,0.3    c0.5,0.1,1,0.2,1.5,0.2c0.5,0,1-0.1,1.4-0.1c0.3-0.1,0.6-0.1,0.9-0.1l1.8-0.3l0.4-1c0,0,0.1,0,0.1,0h1l0.6-0.2    c0.7-0.3,1.2-0.4,1.6-0.7c0.1-0.1,0.2-0.1,0.2-0.1c0.3-0.1,0.7-0.3,1.1-0.7l0,0c0.1-0.1,0.3-0.2,0.4-0.4c0.3-0.2,0.6-0.5,0.9-0.8    c0.4-0.4,0.6-0.7,0.9-1.2c0.1-0.1,0.1-0.1,0.2-0.2c0.1-0.1,0.3-0.3,0.4-0.4c0.4-0.3,0.7-0.7,0.9-1.2c0.4-0.5,0.6-1.1,0.7-1.6    c0-0.1,0.1-0.2,0.1-0.3l57-134.7C2270.8,3137.9,2270.7,3133.7,2269.1,3130z"/>
		<path fill="#303D3B" d="M2339.8,3128.9c-2.5-6-8.2-9.8-14.5-9.6c-6.2-0.3-12.1,3.7-14.6,9.7l-50.9,135.8    c-2.8,8.1,1.2,16.8,9.1,19.7l0.1,0c1.7,0.6,3.3,0.8,5.2,0.8c6.3,0,11.9-4,14.3-9.8l10.7-28.5h52.5l10.7,28.5    c2.1,5.8,7.8,9.8,14.1,9.8c2,0,3.9-0.3,5.3-0.8c7.9-3,11.9-11.6,9.1-19.8L2339.8,3128.9z M2340.3,3217h-30.1l15-39.9L2340.3,3217z    "/>
		<path fill="#303D3B" d="M2498.7,3254H2439v-119.8c0-8.2-7.2-15.2-15.6-15.2c-8.5,0-15.4,6.8-15.4,15.2v135.9    c0,8.4,6.9,14.9,15.4,14.9h75.3c8.1,0,15.2-7.2,15.2-15.4C2513.9,3261.2,2507,3254,2498.7,3254z"/>
		<path fill="#303D3B" d="M2619.3,3254H2559v-119.8c0-8.4-6.8-15.2-15.1-15.2c-8.3,0-14.9,6.7-14.9,15.2v135.9    c0,8.5,6.5,14.9,14.9,14.9h75.3c8.1,0,15.2-7.2,15.2-15.4C2634.4,3261.2,2627.5,3254,2619.3,3254z"/>
		<path fill="#303D3B" d="M2739.8,3149c8.4,0,15.2-6.8,15.2-15.1c0-8.2-6.8-14.9-15.2-14.9h-75.3c-8.6,0-15.4,6.9-15.4,15.2v135.9    c0,8.4,6.9,14.9,15.3,14.9h0.1c0.2,0,0.4,0,0.7,0h74.7c8.1,0,15.2-7.2,15.2-15.4c0-8.5-6.9-15.6-15.2-15.6H2680v-37h51    c8.2,0,15.2-7.2,15.2-15.6c0-8.2-7.1-15.4-15.2-15.4h-51v-37H2739.8z"/>
		<path fill="#303D3B" d="M2890.1,3123.7c-2.6-1.9-5.7-3-8.9-3c-4.8,0-9.3,2.3-12.4,6.3l-37.4,51.2l-37.3-51.1    c-2.7-4-7.2-6.3-12-6.3c-3.2,0-6.3,1-9,2.9c-3.4,2.5-5.6,6.1-6.2,10.1c-0.5,3.9,0.5,7.8,3,10.9l46.1,64v61.4    c0,8.2,7.1,15.2,15.5,15.2c8.5,0,15.5-6.8,15.5-15.2v-61.4l46.6-64.1C2898.3,3138,2896.7,3128.6,2890.1,3123.7z"/>
	</g>
</g>
</svg>