<svg version="1.2" baseProfile="tiny" id="Layer_1" xmlns="http://www.w3.org/2000/svg" xmlns:xlink="http://www.w3.org/1999/xlink" x="0px" y="0px" overflow="visible" xml:space="preserve" viewBox="45 45 1360.92 391.02">
<g>
	<g>
		<g>

				<ellipse transform="matrix(0.7071 -0.7071 0.7071 0.7071 -99.1076 240.2409)" fill-rule="evenodd" fill="#6ACFF6" cx="240.4" cy="239.8" rx="192.4" ry="192.4"/>
			<path fill="#69BE5A" d="M386.6,114.6c-3.1-3.6-6.3-7.1-9.7-10.5C202.6,95.5,104,141.6,61.3,169.5c-2,5.1-3.8,10.3-5.3,15.5     c-5.1,17.4-7.9,35.7-7.9,54.8c0,106.3,86.2,192.4,192.4,192.4c106.3,0,192.4-86.2,192.4-192.4C432.9,192,415.5,148.3,386.6,114.6     z"/>
			<g>
				<path fill="#FFF34D" d="M163.2,416c23.6,10.4,49.8,16.1,77.2,16.1c106.3,0,192.4-86.2,192.4-192.4c0-11-0.9-21.8-2.7-32.3      C231,216.5,176,366,163.2,416z"/>
			</g>
			<g>
				<path fill="#6ACFF6" d="M423.6,298.8C332,336.3,297.2,391.1,284,427.2C350,412,403,362.7,423.6,298.8z"/>
			</g>
		</g>
		<path fill="#303D3B" d="M398,281.1c-39.9,12.3-66.4,50.3-103.2,40.4c-35.6-9.6-42.3-78.4-42.3-78.4c-2.1-8.1-2.7-16.7-1.4-25.5    c2.6-17.4,6-35.6,3.3-52.5c-3.8-23.4-21.9-35.4-45.4-37.1c-23-1.7-43.7,12.3-51.5,33.5c-11.7,31.9-11.7,31.9-44.8,43.3    c3.4,18.9,17,27.1,33.5,28c14.8,0.8,29.8-3.3,49.2-5.8c-3.9,8.3-7.8,16.4-11.3,24.5c-18.9,25-34.5,58.6-34.5,83.3    c0,55.7,45.2,100.9,100.9,100.9c18,0,34.8-4.7,49.4-13l0,0.7c72.8-45.5,94.7-121.6,94.7-121.6C404.4,282.1,398,281.1,398,281.1z"/>
		<path fill="#303D3B" d="M240.5,436c-52.2,0-101.3-20.3-138.2-57.3C65.3,341.8,45,292.7,45,240.5c0-52.2,20.3-101.3,57.3-138.2    c36.9-36.9,86-57.3,138.2-57.3c52.2,0,101.3,20.3,138.2,57.3c36.9,36.9,57.3,86,57.3,138.2c0,52.2-20.3,101.3-57.3,138.2    C341.8,415.7,292.7,436,240.5,436z M240.5,52.6c-50.2,0-97.4,19.5-132.8,55c-35.5,35.5-55,82.7-55,132.8    c0,50.2,19.5,97.4,55,132.8c35.5,35.5,82.7,55,132.8,55c50.2,0,97.4-19.5,132.8-55c35.5-35.5,55-82.7,55-132.8    c0-50.2-19.5-97.4-55-132.8C337.9,72.2,290.7,52.6,240.5,52.6z"/>
	</g>
	<g>
		<path fill="#303D3B" d="M607,124.1c-7.2-3.4-15.5-5.7-24.3-7.9l-2.9-0.9h-0.5c-9.6-0.8-18.2-4.4-23.2-7.8    c-2.3-1.6-3.9-2.9-4.6-4.2c-0.8-1.3-1-2.3-1-4.2c0-3.8,2.2-7.2,6.5-10.5c5.3-3.9,12.8-6.1,20.4-6.1c11,0,20.1,5.5,30,12    c2,1.3,4.3,2,6.6,2c4.1,0,7.8-2.1,10-5.5c3.7-5.4,2.3-12.8-3.4-16.6l-0.5-0.3c-10.1-6.5-23.9-15.5-42.8-15.5    c-12.8,0-25.2,3.8-34.7,10.7c-10.4,7.6-16.3,18.6-16.3,30c0,6.1,1.7,12,4.8,17c4.2,6.6,10.5,12,18.9,15.9c7.1,3.4,15.7,6,25.4,7.8    h0.6c10,1.5,19.5,4.7,25.5,8.6c2.4,1.6,4,3.2,5.2,5.1c1.1,1.8,1.4,3.1,1.4,5.1c0,4.4-2.5,8.6-7.5,12.3c-5.9,4.3-14.2,6.7-23,6.7    h-0.4c-12.9,0-27-7.7-35.1-14.4c-2.2-1.8-4.9-2.8-7.7-2.8c-3.7,0-7.1,1.6-9.4,4.4c-4,5.2-3.2,12.8,1.9,17    c11.3,8.9,29.3,18.9,50.8,19.7l0,0c13.9,0,27-4,37-11.4c11.2-8,17.5-19.6,17.5-31.7c0-6.3-1.8-12.5-5-17.6    C623,134.1,616.4,128.7,607,124.1z"/>
		<path fill="#303D3B" d="M664.2,202c7.1,0,13.1-5.8,13.1-12.8V75.1c0-6.9-6-12.8-13.1-12.8c-7.2,0-12.9,5.6-12.9,12.8v114.1    C651.2,196.4,657,202,664.2,202z"/>
		<path fill="#303D3B" d="M714,201.7h63.2c6.8,0,12.8-6,12.8-12.9c0-7.1-5.8-13.1-12.8-13.1h-50.5V75.1c0-7.1-5.7-12.8-12.7-12.8    c-7,0-12.5,5.6-12.5,12.8v114.1C701.6,196.4,707.1,201.7,714,201.7z"/>
		<path fill="#303D3B" d="M817.4,202c7,0,12.7-5.7,12.7-12.8V75.1c0-7.1-5.7-12.8-12.7-12.8c-7.1,0-12.5,5.5-12.5,12.8v114.1    C804.9,196.5,810.2,202,817.4,202z"/>
		<path fill="#303D3B" d="M922.1,202c16.3,0,32.3-5.5,45.2-15.5c2.2-1.5,3.4-3.3,4.4-5.5l0.2-0.4v-0.5l0,0l0.3-0.4l0.1-0.3    c0.1-0.3,0.1-0.6,0.2-0.9c0.2-0.8,0.3-1.6,0.3-2.7V133c0-7.3-6-13.5-13.3-13.5h-38.5c-7.4,0-13.1,5.7-13.1,12.9    c0,7.1,6,13.1,13.1,13.1h25.7v23.8c-7.5,4.2-16.1,6.5-24.5,6.5c-13,0-24.8-4.8-33.4-13.5c-9-8.6-13.9-19.8-13.9-31.7    c0-12.2,5-23.6,13.9-32.2c8.5-8.7,20.3-13.5,33.3-13.5c10.5,0,20.9,3.5,29.2,10c2.3,1.8,5.2,2.9,8.2,2.9c4,0,8-1.8,10.4-5    c2.2-2.9,3.1-6.5,2.6-10.1c-0.5-3.5-2.4-6.5-5-8.6c-12.7-10-28.8-15.5-45.4-15.5c-40.5,0-73.5,32.2-73.5,71.9    c0,19.2,7.6,37.3,21.6,50.7C884.2,194.6,902.6,202,922.1,202z"/>
		<path fill="#303D3B" d="M1067,202c17.8,0,35.6-8,47.8-21.3c13-13.6,20.1-31.5,20.1-50.4c0-18.7-7.1-36.6-20.1-50.4    c-12-13.4-29.8-21.4-47.8-21.4c-18.6,0-36.3,7.8-48.9,21.3c-12.7,13.5-19.7,31.4-19.7,50.4c0,19.1,7,37,19.7,50.4    C1030.9,194.2,1048.7,202,1067,202z M1067,84.8c10.8,0,21.2,4.6,29,13.1c8,8.6,12.6,20.4,12.6,32.4c0,12.1-4.6,23.8-12.6,32.2    c-8,8.6-18.3,13.3-29,13.3c-11.4,0-21.7-4.6-29.8-13.3c-8-8.1-12.6-19.9-12.6-32.2s4.6-24,12.6-32.4    C1045.2,89.3,1055.5,84.8,1067,84.8z"/>
		<path fill="#303D3B" d="M1240.7,197.4c2.4,2.9,6,4.5,9.7,4.5c7,0,12.8-5.8,12.8-12.8V76.8c0-6.8-5.8-12.5-12.7-12.5    c-6.9,0-12.5,5.6-12.5,12.5V150l-58.8-81.2c-2.4-3.3-6-5.1-10.1-5.1c-2.6,0-5.2,0.8-7.5,2.4c-3.9,2.9-5.9,7.1-5,10.8v112.3    c0,7.1,5.7,12.8,12.7,12.8c6.8,0,12.5-5.8,12.5-12.8v-73.8l57.8,80.5C1240,196.5,1240.3,197,1240.7,197.4z"/>
		<path fill="#303D3B" d="M1392.6,119.4H1354c-7.4,0-13.1,5.7-13.1,12.9c0,7.1,6,13.1,13.1,13.1h25.8v23.8    c-8.7,4.4-16.5,6.5-24.5,6.5c-13,0-24.8-4.8-33.4-13.5c-9-8.6-13.9-19.9-13.9-31.7c0-12.2,5-23.6,13.9-32.2    c8.5-8.7,20.3-13.5,33.3-13.5c10.5,0,20.9,3.5,29.2,10c2.3,1.8,5.2,2.9,8.2,2.9c4,0,8-1.8,10.4-5c2.2-2.9,3.1-6.5,2.6-10.1    c-0.5-3.5-2.4-6.5-5-8.6c-12.7-10-28.8-15.5-45.4-15.5c-40.5,0-73.5,32.2-73.5,71.9c0,19.2,7.6,37.3,21.6,50.7    c13.9,13.4,32.2,20.8,51.9,20.8c16.3,0,32.4-5.5,45.2-15.5c2.4-1.7,3.5-3.6,4.4-5.5l0.2-0.4v-0.5l0,0l0.3-0.4l0.1-0.3    c0.1-0.3,0.1-0.6,0.2-0.9c0.2-0.8,0.3-1.6,0.3-2.7V133C1405.9,125.7,1400,119.4,1392.6,119.4z"/>
		<path fill="#303D3B" d="M771.4,268c-1.3-3.1-3.8-5.5-6.8-6.7c-1.5-0.7-3.2-1-4.9-1c-5.1,0-9.7,3-11.8,7.7l-35.8,85l-35.8-85    c-2-4.7-6.5-7.7-11.6-7.7c-1.7,0-3.4,0.3-4.9,1c-3.2,1.3-5.7,3.6-7,6.8c-1.3,3.1-1.3,6.6,0.1,9.7l47.4,113l0.2,0.3l0.3,0.3    c0.1,0.1,0.2,0.3,0.5,0.8c0.2,0.3,0.3,0.7,0.7,0.9c0.2,0.3,0.3,0.5,0.6,0.7c0,0,0,0,0,0.1v0.8l0.9,0.6c0.3,0.2,0.5,0.2,0.7,0.2    l0.5,0.9h1.3c0.1,0-0.1,0.3,0,0.3s0,0.3,0,0.3v0.3h2.4l0.3,0.8h1.8c0.2,0,0.4,0.2,0.7,0.3c0.4,0.1,0.8,0.2,1.3,0.2    s0.8-0.1,1.2-0.1c0.3-0.1,0.5-0.1,0.8-0.1l1.5-0.3l0.3-0.8h0.1h0.8l0.5-0.2c0.6-0.3,1-0.3,1.3-0.6c0.1-0.1,0.2-0.1,0.2-0.1    c0.3-0.1,0.6-0.3,0.9-0.6l0,0c0.1-0.1,0.3-0.2,0.3-0.3c0.3-0.2,0.5-0.4,0.8-0.7c0.3-0.3,0.5-0.6,0.8-1c0.1-0.1,0.1-0.1,0.2-0.2    c0.1-0.1,0.3-0.3,0.3-0.3c0.3-0.3,0.6-0.6,0.8-1c0.3-0.4,0.5-0.9,0.6-1.3c0-0.1,0.1-0.2,0.1-0.3l47.8-113.1    C772.8,274.7,772.7,271.1,771.4,268z"/>
		<path fill="#303D3B" d="M830.7,267.1c-2.1-5-6.9-8.2-12.2-8.1c-5.2-0.3-10.2,3.1-12.3,8.1l-42.7,114c-2.4,6.8,1,14.1,7.6,16.5h0.1    c1.4,0.5,2.8,0.7,4.4,0.7c5.3,0,10-3.4,12-8.2l9-23.9h44.1l9,23.9c1.8,4.9,6.5,8.2,11.8,8.2c1.7,0,3.3-0.3,4.4-0.7    c6.6-2.5,10-9.7,7.6-16.6L830.7,267.1z M831.1,341.1h-25.3l12.6-33.5L831.1,341.1z"/>
		<path fill="#303D3B" d="M964.1,372.1H914V271.6c0-6.9-6-12.8-13.1-12.8c-7.1,0-12.9,5.7-12.9,12.8v114.1c0,7.1,5.8,12.5,12.9,12.5    h63.2c6.8,0,12.8-6,12.8-12.9C976.9,378.2,971.1,372.1,964.1,372.1z"/>
		<path fill="#303D3B" d="M1065.4,372.1h-50.6V271.6c0-7.1-5.7-12.8-12.7-12.8c-7,0-12.5,5.6-12.5,12.8v114.1    c0,7.1,5.5,12.5,12.5,12.5h63.2c6.8,0,12.8-6,12.8-12.9C1078,378.2,1072.2,372.1,1065.4,372.1z"/>
		<path fill="#303D3B" d="M1166.5,284c7.1,0,12.8-5.7,12.8-12.7c0-6.9-5.7-12.5-12.8-12.5h-63.2c-7.2,0-12.9,5.8-12.9,12.8v114.1    c0,7.1,5.8,12.5,12.8,12.5h0.1c0.2,0,0.3,0,0.6,0h62.7c6.8,0,12.8-6,12.8-12.9c0-7.1-5.8-13.1-12.8-13.1h-50.3v-31.1h42.8    c6.9,0,12.8-6,12.8-13.1c0-6.9-6-12.9-12.8-12.9h-42.8V284L1166.5,284L1166.5,284z"/>
		<path fill="#303D3B" d="M1292.7,262.7c-2.2-1.6-4.8-2.5-7.5-2.5c-4,0-7.8,1.9-10.4,5.3l-31.4,43l-31.3-42.9    c-2.3-3.4-6-5.3-10.1-5.3c-2.7,0-5.3,0.8-7.6,2.4c-2.9,2.1-4.7,5.1-5.2,8.5c-0.4,3.3,0.4,6.5,2.5,9.2l38.7,53.7v51.5    c0,6.9,6,12.8,13,12.8c7.1,0,13-5.7,13-12.8v-51.5l39.1-53.8C1299.6,274.7,1298.2,266.9,1292.7,262.7z"/>
	</g>
</g>
</svg>