<svg version="1.2" baseProfile="tiny" id="Layer_1" xmlns="http://www.w3.org/2000/svg" xmlns:xlink="http://www.w3.org/1999/xlink" x="0px" y="0px" xml:space="preserve" viewBox="1966.9 1714.58 1066 1066.05">
<g>
	<g>

			<ellipse transform="matrix(0.7071 -0.7071 0.7071 0.7071 -855.6035 2425.2573)" fill-rule="evenodd" fill="#6ACFF6" cx="2499.7" cy="2245.4" rx="524.7" ry="524.7"/>
		<path fill="#69BE5A" d="M2898.4,1904.2c-8.4-9.8-17.2-19.4-26.3-28.6c-475.6-23.6-744.2,102.2-860.9,178.1    c-5.4,13.8-10.3,28-14.5,42.3c-14,47.3-21.6,97.5-21.6,149.3c0,289.8,234.9,524.7,524.7,524.7c289.8,0,524.7-234.9,524.7-524.7    C3024.5,2115.2,2976.9,1996,2898.4,1904.2z"/>
		<g>
			<path fill="#FFF34D" d="M2289.1,2726.1c64.5,28.3,135.7,44,210.6,44c289.8,0,524.7-234.9,524.7-524.7c0-30-2.5-59.4-7.4-88.1     C2473.9,2182,2324.1,2589.8,2289.1,2726.1z"/>
		</g>
		<g>
			<path fill="#6ACFF6" d="M2999.2,2406.6c-249.8,102.2-344.7,251.4-380.8,350.1C2798.5,2715,2943.1,2580.7,2999.2,2406.6z"/>
		</g>
	</g>
	<path fill="#303D3B" d="M2929.2,2358.3c-108.7,33.5-181.1,137.1-281.4,110.1c-97.2-26.2-115.2-213.8-115.2-213.8   c-5.8-22-7.3-45.6-3.7-69.4c7.1-47.4,16.4-97.1,8.9-143.2c-10.4-63.7-59.7-96.4-123.7-101.2c-62.8-4.7-119.1,33.4-140.3,91.4   c-31.9,87-31.9,87-122.1,118c9.2,51.4,46.5,73.9,91.4,76.4c40.3,2.3,81.3-9,134.1-15.9c-10.7,22.6-21.3,44.8-30.8,66.8   c-51.6,68.2-94.2,159.8-94.2,227.2c0,152,123.2,275.2,275.2,275.2c49,0,95-12.9,134.8-35.3l0,1.9   c198.5-124.1,258.2-331.5,258.2-331.5C2946.7,2361,2929.2,2358.3,2929.2,2358.3z"/>
	<path fill="#303D3B" d="M2499.9,2780.6c-142.4,0-276.3-55.5-376.9-156.1c-100.7-100.7-156.1-234.6-156.1-376.9   c0-142.4,55.5-276.3,156.1-376.9c100.7-100.7,234.6-156.1,376.9-156.1c142.4,0,276.3,55.5,376.9,156.1   c100.7,100.7,156.1,234.6,156.1,376.9c0,142.4-55.5,276.3-156.1,376.9C2776.2,2725.1,2642.3,2780.6,2499.9,2780.6z M2499.9,1735.2   c-136.8,0-265.5,53.3-362.2,150c-96.8,96.8-150,225.4-150,362.2c0,136.8,53.3,265.5,150,362.2c96.8,96.8,225.4,150,362.2,150   c136.8,0,265.5-53.3,362.2-150c96.8-96.8,150-225.4,150-362.2c0-136.8-53.3-265.5-150-362.2   C2765.4,1788.5,2636.7,1735.2,2499.9,1735.2z"/>
</g>
</svg>